<?xml version="1.0" encoding="UTF-8" standalone="no"?>
<svg
   height="128"
   width="128"
   version="1.1"
   id="svg26"
   sodipodi:docname="icon.svg"
   xml:space="preserve"
   inkscape:version="1.2.1 (9c6d41e410, 2022-07-14)"
   xmlns:inkscape="http://www.inkscape.org/namespaces/inkscape"
   xmlns:sodipodi="http://sodipodi.sourceforge.net/DTD/sodipodi-0.dtd"
   xmlns="http://www.w3.org/2000/svg"
   xmlns:svg="http://www.w3.org/2000/svg"><defs
     id="defs30" /><sodipodi:namedview
     id="namedview28"
     pagecolor="#ffffff"
     bordercolor="#000000"
     borderopacity="0.25"
     inkscape:showpageshadow="2"
     inkscape:pageopacity="0.0"
     inkscape:pagecheckerboard="0"
     inkscape:deskcolor="#d1d1d1"
     showgrid="true"
     inkscape:zoom="5.6568542"
     inkscape:cx="93.249708"
     inkscape:cy="92.277436"
     inkscape:window-width="2560"
     inkscape:window-height="1369"
     inkscape:window-x="-8"
     inkscape:window-y="-8"
     inkscape:window-maximized="1"
     inkscape:current-layer="svg26"><inkscape:grid
       type="xygrid"
       id="grid1076" /><inkscape:grid
       type="xygrid"
       id="grid1078" /></sodipodi:namedview><g
     transform="translate(32 32)"
     id="g6"><path
       d="m-16-32c-8.86 0-16 7.13-16 15.99v95.98c0 8.86 7.13 15.99 16 15.99h96c8.86 0 16-7.13 16-15.99v-95.98c0-8.85-7.14-15.99-16-15.99z"
       fill="#363d52"
       id="path2" /><path
       d="m-16-32c-8.86 0-16 7.13-16 15.99v95.98c0 8.86 7.13 15.99 16 15.99h96c8.86 0 16-7.13 16-15.99v-95.98c0-8.85-7.14-15.99-16-15.99zm0 4h96c6.64 0 12 5.35 12 11.99v95.98c0 6.64-5.35 11.99-12 11.99h-96c-6.64 0-12-5.35-12-11.99v-95.98c0-6.64 5.36-11.99 12-11.99z"
       fill-opacity=".4"
       id="path4" /></g><g
     stroke-width="9.92746"
     transform="matrix(.10073078 0 0 .10073078 12.425923 2.256365)"
     id="g24"><path
       d="m0 0s-.325 1.994-.515 1.976l-36.182-3.491c-2.879-.278-5.115-2.574-5.317-5.459l-.994-14.247-27.992-1.997-1.904 12.912c-.424 2.872-2.932 5.037-5.835 5.037h-38.188c-2.902 0-5.41-2.165-5.834-5.037l-1.905-12.912-27.992 1.997-.994 14.247c-.202 2.886-2.438 5.182-5.317 5.46l-36.2 3.49c-.187.018-.324-1.978-.511-1.978l-.049-7.83 30.658-4.944 1.004-14.374c.203-2.91 2.551-5.263 5.463-5.472l38.551-2.75c.146-.01.29-.016.434-.016 2.897 0 5.401 2.166 5.825 5.038l1.959 13.286h28.005l1.959-13.286c.423-2.871 2.93-5.037 5.831-5.037.142 0 .284.005.423.015l38.556 2.75c2.911.209 5.26 2.562 5.463 5.472l1.003 14.374 30.645 4.966z"
       fill="#fff"
       transform="matrix(4.162611 0 0 -4.162611 919.24059 771.67186)"
       id="path8" /><path
       d="m0 0v-47.514-6.035-5.492c.108-.001.216-.005.323-.015l36.196-3.49c1.896-.183 3.382-1.709 3.514-3.609l1.116-15.978 31.574-2.253 2.175 14.747c.282 1.912 1.922 3.329 3.856 3.329h38.188c1.933 0 3.573-1.417 3.855-3.329l2.175-14.747 31.575 2.253 1.115 15.978c.133 1.9 1.618 3.425 3.514 3.609l36.182 3.49c.107.01.214.014.322.015v4.711l.015.005v54.325c5.09692 6.4164715 9.92323 13.494208 13.621 19.449-5.651 9.62-12.575 18.217-19.976 26.182-6.864-3.455-13.531-7.369-19.828-11.534-3.151 3.132-6.7 5.694-10.186 8.372-3.425 2.751-7.285 4.768-10.946 7.118 1.09 8.117 1.629 16.108 1.846 24.448-9.446 4.754-19.519 7.906-29.708 10.17-4.068-6.837-7.788-14.241-11.028-21.479-3.842.642-7.702.88-11.567.926v.006c-.027 0-.052-.006-.075-.006-.024 0-.049.006-.073.006v-.006c-3.872-.046-7.729-.284-11.572-.926-3.238 7.238-6.956 14.642-11.03 21.479-10.184-2.264-20.258-5.416-29.703-10.17.216-8.34.755-16.331 1.848-24.448-3.668-2.35-7.523-4.367-10.949-7.118-3.481-2.678-7.036-5.24-10.188-8.372-6.297 4.165-12.962 8.079-19.828 11.534-7.401-7.965-14.321-16.562-19.974-26.182 4.4426579-6.973692 9.2079702-13.9828876 13.621-19.449z"
       fill="#478cbf"
       transform="matrix(4.162611 0 0 -4.162611 104.69892 525.90697)"
       id="path10" /><path
       d="m0 0-1.121-16.063c-.135-1.936-1.675-3.477-3.611-3.616l-38.555-2.751c-.094-.007-.188-.01-.281-.01-1.916 0-3.569 1.406-3.852 3.33l-2.211 14.994h-31.459l-2.211-14.994c-.297-2.018-2.101-3.469-4.133-3.32l-38.555 2.751c-1.936.139-3.476 1.68-3.611 3.616l-1.121 16.063-32.547 3.138c.015-3.498.06-7.33.06-8.093 0-34.374 43.605-50.896 97.781-51.086h.066.067c54.176.19 97.766 16.712 97.766 51.086 0 .777.047 4.593.063 8.093z"
       fill="#478cbf"
       transform="matrix(4.162611 0 0 -4.162611 784.07144 817.24284)"
       id="path12" /><path
       d="m0 0c0-12.052-9.765-21.815-21.813-21.815-12.042 0-21.81 9.763-21.81 21.815 0 12.044 9.768 21.802 21.81 21.802 12.048 0 21.813-9.758 21.813-21.802"
       fill="#fff"
       transform="matrix(4.162611 0 0 -4.162611 389.21484 625.67104)"
       id="path14" /><path
       d="m0 0c0-7.994-6.479-14.473-14.479-14.473-7.996 0-14.479 6.479-14.479 14.473s6.483 14.479 14.479 14.479c8 0 14.479-6.485 14.479-14.479"
       fill="#414042"
       transform="matrix(4.162611 0 0 -4.162611 367.36686 631.05679)"
       id="path16" /><path
       d="m0 0c-3.878 0-7.021 2.858-7.021 6.381v20.081c0 3.52 3.143 6.381 7.021 6.381s7.028-2.861 7.028-6.381v-20.081c0-3.523-3.15-6.381-7.028-6.381"
       fill="#fff"
       transform="matrix(4.162611 0 0 -4.162611 511.99336 724.73954)"
       id="path18" /><path
       d="m0 0c0-12.052 9.765-21.815 21.815-21.815 12.041 0 21.808 9.763 21.808 21.815 0 12.044-9.767 21.802-21.808 21.802-12.05 0-21.815-9.758-21.815-21.802"
       fill="#fff"
       transform="matrix(4.162611 0 0 -4.162611 634.78706 625.67104)"
       id="path20" /><path
       d="m0 0c0-7.994 6.477-14.473 14.471-14.473 8.002 0 14.479 6.479 14.479 14.473s-6.477 14.479-14.479 14.479c-7.994 0-14.471-6.485-14.471-14.479"
       fill="#414042"
       transform="matrix(4.162611 0 0 -4.162611 656.64056 631.05679)"
       id="path22" /></g><g
     id="g700"
     transform="matrix(0.11069445,0,0,0.11111111,-10.875128,42.664836)"><path
       d="m 833.39833,549.88945 c 48.79995,3.3 59.19995,2.1 59.19995,12 0,20.1 -65.79995,20.1 -65.79995,1.5 0,-5.1 3.3,-9.4 6.6,-13.5 z m 28.1,-117.2 c -32.4,0 -33.9,44.7 -0.8,44.7 32.70005,0 31.89995,-44.7 0.8,-44.7 z m 320.90007,-138.2 v 353.6 c 0,26.6 -21.6,48.2 -48.2,48.2 H 780.59833 c -26.6,0 -48.2,-21.6 -48.2,-48.2 v -353.6 c 0,-26.59999 21.6,-48.19999 48.2,-48.19999 h 353.60007 c 26.6,0 48.2,21.6 48.2,48.19999 z m -228.00012,69.6 c 0,14.6 8.4001,23 23,23 14.8001,0 23.20012,-8.4 23.20012,-23 0,-14.6 -8.40002,-22.4 -23.20012,-22.4 -14.5999,0 -23,7.9 -23,22.4 z m -21.8999,45.9 h -49.8001 c -25.09995,-6.6 -81.89995,-4.9 -81.89995,47 0,18.9 9.4,32.1 21.9,38.3 -15.8,14.4 -23.2,21.2 -23.2,30.9 0,6.9 2.8,13.3 11.2,16.8 -8.9,8.4 -14.1,14.5 -14.1,26 0,20.2 17.6,31.9 63.8,31.9 44.40005,0 70.20005,-16.6 70.20005,-45.9 0,-36.8 -28.4,-35.5 -95.20005,-39.6 l 8.4,-13.5 c 17.1,4.8 74.50005,6.3 74.50005,-42.6 0,-11.7 -4.9001,-19.9 -9.4001,-25.8 l 23.5,-1.8 z m 84.70002,110.4 -13.1,-1.8 c -3.8,-0.5 -4.10002,-1 -4.10002,-5.1 v -106 h -52.8 l -2.8,20.7 c 15.8,5.6 17.1,4.9 17.1,10.2 v 75.1 c 0,5.6 -0.3,4.6 -17.1,6.9 v 20.1 h 72.70002 z m 100.9,10.2 -6.9,-22.5 c -41.1,15.4 -38,-12.5 -38,-16.8 v -61 h 38 v -25.5 h -36 c -2.9,0 -2,2.5 -2,-38.8 h -24.3 c -2.8,27.8 -11.7,39.1 -34.2,41.6 v 22.7 c 20.6,0 19.9,-0.9 19.9,2.6 v 66.9 c 0,28.8 11.5,41.1 41.9,41.1 14.6,-0.1 30.6,-4.9 41.6,-10.3 z"
       id="path124"
       inkscape:label="path124"
       style="fill:#000000" /><path
       style="fill:#ffffff;stroke-width:1.12712"
       d="m 843.68304,599.63115 c -26.80372,-2.2528 -41.35438,-9.7723 -45.33991,-23.4306 -2.91917,-10.0039 -0.45811,-18.2927 8.40506,-28.3077 l 4.51396,-5.1006 -3.9188,-2.5592 c -6.70011,-4.3756 -9.12514,-14.423 -5.28313,-21.8892 1.019,-1.9802 6.2276,-8.0973 11.57466,-13.5936 6.89489,-7.0872 9.23644,-10.1654 8.05235,-10.5857 -0.91827,-0.3258 -4.28523,-3.057 -7.48213,-6.0691 -10.52846,-9.9201 -14.95076,-25.5265 -11.79808,-41.6359 4.84398,-24.7513 25.29299,-38.3169 57.64992,-38.2443 6.52133,0.014 14.14364,0.5631 16.93854,1.2187 2.7948,0.6556 16.388,1.2044 30.207,1.2195 l 25.1255,0.028 v 10.125 c 0,5.5687 -0.1274,10.1431 -0.2819,10.1651 -0.1554,0.023 -5.2778,0.4848 -11.3833,1.0281 -6.1055,0.5435 -11.3401,1.2263 -11.6325,1.5175 -0.2923,0.2912 0.9759,2.8974 2.8182,5.7916 9.5281,14.9679 6.6799,38.3061 -6.1081,50.0495 -12.2248,11.2261 -33.3664,16.1911 -56.04814,13.1625 l -6.41284,-0.8562 -4.03258,6.2803 c -2.21792,3.4542 -4.03259,6.6769 -4.03259,7.1616 0,0.4848 10.43448,1.5151 23.18773,2.2896 47.72422,2.8983 61.28592,7.0655 68.28022,20.9812 2.4176,4.8099 2.8231,7.152 2.8231,16.3042 0,9.3933 -0.3776,11.4538 -3.1191,17.0151 -5.7649,11.6949 -18.6044,20.8472 -35.2748,25.1449 -6.5045,1.6768 -28.57185,4.1084 -34.44169,3.7951 -1.5527,-0.083 -7.39649,-0.5351 -12.9862,-1.0049 z m 35.07864,-24.8043 c 9.4716,-2.9145 14.0431,-7.0378 14.0431,-12.6665 0,-7.6532 -3.9076,-9.0918 -29.36013,-10.8092 -9.62673,-0.6497 -20.44016,-1.4256 -24.02986,-1.7244 l -6.52672,-0.5433 -3.35408,5.269 c -3.95017,6.2054 -4.23035,10.1652 -1.00804,14.2464 4.76588,6.0361 12.93311,8.3451 30.0005,8.4815 9.79387,0.078 14.28163,-0.4215 20.23523,-2.2535 z m -10.00802,-97.9453 c 16.94892,-4.2518 22.45922,-26.7242 9.42852,-38.4525 -11.54868,-10.3944 -32.22233,-7.285 -39.21071,5.8976 -3.17883,5.9964 -3.51691,15.3365 -0.76427,21.1155 4.74336,9.9584 17.46257,14.7216 30.54648,11.4394 z"
       id="path592" /><path
       style="fill:#ffffff;stroke-width:1.12712"
       d="m 944.74948,530.56235 v -9.4935 l 5.3639,-0.7199 c 2.9501,-0.3959 6.6343,-1.1019 8.187,-1.5687 l 2.8231,-0.8487 0.2963,-41.7768 0.2963,-41.7768 -3.1192,-1.5731 c -1.716,-0.8652 -5.1523,-2.2081 -7.6366,-2.9844 -2.4843,-0.7762 -4.8384,-1.7298 -5.2313,-2.1191 -0.393,-0.3894 -0.1346,-4.7579 0.5737,-9.7079 l 1.2879,-9 25.6811,-0.3024 25.6812,-0.3024 0.018,52.6149 c 0.01,28.9382 0.3126,53.7178 0.6748,55.0658 0.49692,1.8452 1.81882,2.6283 5.34852,3.1681 2.5788,0.3944 6.3401,0.9931 8.3586,1.3305 l 3.6701,0.6133 v 9.4374 9.4373 h -36.13562 -36.1355 z"
       id="path594" /><path
       style="fill:#ffffff;stroke-width:1.12712"
       d="m 975.80348,386.45135 c -0.6206,-0.1849 -3.0457,-0.6557 -5.388,-1.0463 -16.5322,-2.7566 -21.0799,-29.9161 -6.6332,-39.6152 8.3432,-5.6014 25.1626,-3.9484 31.0771,3.0542 9.45882,11.199 5.0024,32.0249 -7.6675,35.8316 -4.5041,1.3533 -9.9532,2.2029 -11.3884,1.7757 z"
       id="path596" /><path
       style="fill:#ffffff;stroke-width:1.12712"
       d="m 1059.8517,538.51765 c -8.3954,-2.2552 -15.3393,-6.9603 -18.6978,-12.6695 -5.4713,-9.3012 -6.0288,-14.5501 -6.048,-56.9484 l -0.018,-39.0938 h -10.1631 -10.1631 v -10.6117 c 0,-11.6174 -0.4923,-10.839 7.9047,-12.5041 13.5933,-2.6957 22.3241,-13.5022 25.3403,-31.3649 l 1.3435,-7.9568 11.4737,-0.3203 11.4739,-0.3203 0.3098,18.8828 0.3099,18.8828 18.9147,0.3084 18.9146,0.3085 v 12.3478 12.3478 h -19.2557 -19.2556 l 0.3406,35.7188 c 0.3767,39.4625 0.505,40.2225 7.5658,44.958 4.8782,3.2715 14.0482,3.4427 23.7227,0.443 l 6.8699,-2.1302 3.2368,10.2865 c 2.8498,9.0569 3.0334,10.4499 1.5363,11.6545 -2.1053,1.6939 -16.8124,6.4945 -24.8606,8.1147 -7.878,1.586 -24.3125,1.408 -30.7959,-0.3336 z"
       id="path598" /></g></svg>
